HIERARCHY
ROOT root
{
	OFFSET	0	13.1	24.9
	CHANNELS 6  Xposition Yposition Zposition Xrotation Yrotation Zrotation
	JOINT spine_1
	{
		OFFSET	0	9.99999	0
		CHANNELS 3  Xrotation Yrotation Zrotation
		JOINT spine_2
		{
			OFFSET	0	112	-10
			CHANNELS 3  Xrotation Yrotation Zrotation
			JOINT spine_3
			{
				OFFSET	0	206.5	19.3
				CHANNELS 3  Xrotation Yrotation Zrotation
				JOINT spine_4
				{
					OFFSET	0	110.4	14.6
					CHANNELS 3  Xrotation Yrotation Zrotation
					JOINT neck_1
					{
						OFFSET	0	71.8	-50.3
						CHANNELS 3  Xrotation Yrotation Zrotation
						JOINT neck_2
						{
							OFFSET	0	86.2	-25.8
							CHANNELS 3  Xrotation Yrotation Zrotation
							JOINT head_ee
							{
								OFFSET	0	179.8	-8.7
								CHANNELS 3  Xrotation Yrotation Zrotation
								End Site
								{
									OFFSET	1	0	0
								}
							}
						}
					}
					JOINT left_clavicle
					{
						OFFSET	-43.2	22.4	-70.8
						CHANNELS 3  Xrotation Yrotation Zrotation
						JOINT left_shoulder
						{
							OFFSET	-93.9	-5.79999	48.7
							CHANNELS 3  Xrotation Yrotation Zrotation
							JOINT left_elbow
							{
								OFFSET	-291.4	-30.8	15.2
								CHANNELS 3  Xrotation Yrotation Zrotation
								JOINT left_lowarm_twist
								{
									OFFSET	-110.7	-3.89999	13.6
									CHANNELS 3  Xrotation Yrotation Zrotation
									JOINT left_hand
									{
										OFFSET	-110.7	-3.89999	13.6
										CHANNELS 3  Xrotation Yrotation Zrotation
										JOINT left_ee
										{
											OFFSET	-80.8	-5.10001	12.1
											CHANNELS 3  Xrotation Yrotation Zrotation
											End Site
											{
												OFFSET	1	0	0
											}
										}
									}
								}
							}
						}
					}
					JOINT right_clavicle
					{
						OFFSET	43.2	22.4	-70.8
						CHANNELS 3  Xrotation Yrotation Zrotation
						JOINT right_shoulder
						{
							OFFSET	93.9	-5.79999	48.7
							CHANNELS 3  Xrotation Yrotation Zrotation
							JOINT right_elbow
							{
								OFFSET	291.4	-30.8	15.2
								CHANNELS 3  Xrotation Yrotation Zrotation
								JOINT right_lowarm_twist
								{
									OFFSET	110.7	-3.89999	13.6
									CHANNELS 3  Xrotation Yrotation Zrotation
									JOINT right_hand
									{
										OFFSET	110.7	-3.89999	13.6
										CHANNELS 3  Xrotation Yrotation Zrotation
										JOINT right_ee
										{
											OFFSET	80.8	-5.10001	12.1
											CHANNELS 3  Xrotation Yrotation Zrotation
											End Site
											{
												OFFSET	1	0	0
											}
										}
									}
								}
							}
						}
					}
				}
			}
		}
	}
	JOINT left_hip
	{
		OFFSET	-82.8	-127.5	0.300001
		CHANNELS 3  Xrotation Yrotation Zrotation
		JOINT left_knee
		{
			OFFSET	-28.2	-396.7	2.2
			CHANNELS 3  Xrotation Yrotation Zrotation
			JOINT left_ankle
			{
				OFFSET	-11.7	-411.3	35.4
				CHANNELS 3  Xrotation Yrotation Zrotation
				JOINT left_toes
				{
					OFFSET	0	-60	-88.6
					CHANNELS 3  Xrotation Yrotation Zrotation
					JOINT left_foot_ee
					{
						OFFSET	-22.5	-16.5	-42.2
						CHANNELS 3  Xrotation Yrotation Zrotation
						End Site
						{
							OFFSET	1	0	0
						}
					}
				}
			}
		}
	}
	JOINT right_hip
	{
		OFFSET	82.8	-127.5	0.300001
		CHANNELS 3  Xrotation Yrotation Zrotation
		JOINT right_knee
		{
			OFFSET	28.2	-396.7	2.2
			CHANNELS 3  Xrotation Yrotation Zrotation
			JOINT right_ankle
			{
				OFFSET	11.7	-411.3	35.4
				CHANNELS 3  Xrotation Yrotation Zrotation
				JOINT right_toes
				{
					OFFSET	0	-60	-88.6
					CHANNELS 3  Xrotation Yrotation Zrotation
					JOINT right_foot_ee
					{
						OFFSET	22.5	-16.5	-42.2
						CHANNELS 3  Xrotation Yrotation Zrotation
						End Site
						{
							OFFSET	1	0	0
						}
					}
				}
			}
		}
	}
}
MOTION
Frames: 15
Frame Time: 0.02
2838.89 713.127 -710.72 -100.209 -85.9199 -102.663 3.61572 -0.447761 -1.77994 3.61742 -0.33361 -1.80482 3.62715 -0.0630785 -1.8343 3.62263 -0.351933 -1.80134 -10.7916 11.8244 8.14195 -10.727 16.957 10.9553 -0.0 0.0 -0.0 8.24596 7.93827 15.7605 -6.85879 -33.2292 53.4537 3.46576 -59.7661 1.99194 -85.1268 -8.46777 5.18145 -1.69906 22.6819 -0.779407 -0.0 0.0 -0.0 0.767904 -0.436801 -1.52576 -36.1326 17.2124 -65.92 0.664663 18.2245 -0.106609 5.37501 -0.158129 0.668115 2.2399 -17.1562 -21.1631 0.0 0.0 0.0 -9.45269 -7.35046 10.2978 -9.35183 0.270625 1.40811 21.3075 24.0226 -3.02335 16.599 -0.0 -0.0 -0.0 0.0 -0.0 36.9902 12.1322 5.33182 -2.65128 -0.100047 -0.394548 -22.3494 5.80461 -3.47178 -16.5213 0.0 0.0 0.0 0.0 0.0 
2862.68 708.622 -713.627 -105.01 -86.0446 -108.166 3.62785 -0.389136 -1.80967 3.62963 -0.273213 -1.83076 3.63753 0.000187443 -1.85103 3.63287 -0.2921 -1.82784 -11.0197 12.0703 7.274 -11.0163 18.0467 10.2284 -0.0 0.0 -0.0 7.95153 7.80955 15.22 -7.77437 -33.0404 54.5285 3.48621 -59.9124 2.00963 -85.2243 -8.47995 5.17902 -1.67348 22.2508 -0.833057 -0.0 0.0 -0.0 0.929437 -1.26771 -1.92058 -36.7683 17.4541 -64.6013 0.69141 18.9066 -0.115125 5.36931 -0.157995 0.667398 2.35308 -18.5669 -22.3202 0.0 0.0 0.0 -10.9515 -6.85889 11.4366 -9.67708 0.275876 1.45774 22.9755 23.0221 -3.21952 17.402 -0.0 -0.0 -0.0 0.0 -0.0 35.7123 12.8248 6.27196 -4.55884 -0.160672 -0.681012 -23.4683 5.71513 -3.64392 -15.5753 0.0 0.0 0.0 0.0 0.0 
2883.02 710.844 -713.053 -106.56 -86.1404 -109.889 3.65547 -0.35651 -1.77289 3.65718 -0.242993 -1.79198 3.66396 0.0235272 -1.80822 3.6595 -0.262296 -1.78925 -10.439 12.3879 6.47362 -10.4631 19.0676 9.46087 -0.0 0.0 -0.0 7.42864 7.31862 14.2719 -9.17627 -32.3144 55.0643 3.39238 -59.2305 1.92871 -85.1963 -8.47646 5.17972 -1.65055 21.9506 -0.839876 -0.0 0.0 -0.0 1.056 -1.45152 -2.17977 -37.1589 17.7182 -63.0178 0.723424 19.7158 -0.125712 5.36621 -0.157922 0.66701 2.46926 -19.5742 -23.3663 0.0 0.0 0.0 -12.036 -6.4982 11.9614 -9.8607 0.278716 1.48577 24.0937 22.4221 -3.34904 17.8279 -0.0 -0.0 -0.0 0.0 -0.0 34.3466 13.2784 6.97521 -5.89443 -0.197423 -0.882681 -22.6484 5.62778 -3.51544 -14.9151 0.0 0.0 0.0 0.0 0.0 
2907.34 707.994 -714.228 -107.308 -86.423 -111.013 3.73082 -0.311132 -1.69885 3.7324 -0.202415 -1.7152 3.73767 0.0501522 -1.72637 3.73358 -0.223085 -1.71264 -10.0218 12.6129 5.93118 -10.0593 19.7792 8.9329 -0.0 0.0 -0.0 7.21792 7.0162 13.8918 -10.0565 -31.8454 55.7973 3.32635 -58.7337 1.87213 -85.1684 -8.47297 5.18041 -1.63274 21.7211 -0.842982 -0.0 0.0 -0.0 1.35164 -1.44299 -2.74063 -37.0486 18.0046 -61.9123 0.74706 20.3081 -0.1338 5.37052 -0.158024 0.667551 2.55416 -20.2891 -24.1178 0.0 0.0 0.0 -12.7399 -6.24918 12.2907 -9.97206 0.280395 1.50278 24.8782 22.0092 -3.43856 18.1276 -0.0 -0.0 -0.0 0.0 -0.0 33.3502 13.571 7.46533 -6.83906 -0.220571 -1.0258 -22.1251 5.59649 -3.43371 -14.4532 0.0 0.0 0.0 0.0 0.0 
2927.39 704.444 -707.787 -107.894 -86.2973 -112.263 3.72304 -0.24448 -1.44697 3.72419 -0.15192 -1.45959 3.72749 0.0630611 -1.46612 3.72453 -0.169251 -1.45768 -9.7745 12.7493 5.57922 -9.81937 20.2295 8.58876 -0.0 0.0 -0.0 7.06349 6.80684 13.6116 -11.0995 -31.4741 56.5002 3.26765 -58.2799 1.82208 -85.1479 -8.4704 5.18093 -1.61926 21.5397 -0.848634 -0.0 0.0 -0.0 1.73659 -1.42324 -3.47041 -36.5619 18.4125 -61.4168 0.773893 20.975 -0.14326 5.38972 -0.158476 0.669962 2.61796 -20.7825 -24.6672 0.0 0.0 0.0 -13.1161 -6.10403 12.0868 -9.91199 0.279494 1.49361 25.4122 21.7681 -3.49944 18.3278 -0.0 -0.0 -0.0 0.0 -0.0 32.5685 13.7465 7.75795 -7.51367 -0.235656 -1.12822 -21.7508 5.61302 -3.37579 -14.1002 0.0 0.0 0.0 0.0 0.0 
2952.14 711.243 -698.45 -111.799 -86.6778 -115.884 3.73267 -0.184267 -1.1562 3.73341 -0.110326 -1.16558 3.73528 0.0610765 -1.1692 3.7334 -0.12433 -1.16417 -9.23809 13.8247 6.1059 -9.26176 21.7988 9.27228 -0.0 0.0 -0.0 6.24247 6.63033 12.0947 -13.384 -30.971 56.8282 3.19986 -57.7407 1.76458 -85.1245 -8.46748 5.18151 -1.75018 21.4125 -1.67378 -0.0 0.0 -0.0 1.98423 -2.15581 -4.00148 -36.0598 19.8584 -61.1414 0.79771 21.5619 -0.151899 5.19875 -0.153942 0.645988 2.81917 -21.9038 -26.2784 0.0 0.0 0.0 -13.4295 -6.24381 9.91366 -10.7625 0.29136 1.62356 22.8918 24.2368 -3.22946 18.6903 -0.0 -0.0 -0.0 0.0 -0.0 31.2593 13.677 7.7479 -8.14672 -0.248712 -1.22449 -20.259 8.16692 -3.18285 -13.8407 0.0 0.0 0.0 0.0 0.0 
2973.84 720.021 -690.62 -95.8074 -87.1332 -99.7378 3.86252 -0.168289 -0.988522 3.86306 -0.105049 -0.997226 3.8646 0.039448 -1.00197 3.86322 -0.119281 -0.995624 -8.42654 14.6125 6.31667 -8.41403 22.9686 9.51582 -0.0 0.0 -0.0 5.6873 6.39005 11.0728 -14.7732 -30.4938 57.7181 2.94717 -55.5794 1.55344 -85.1108 -8.46577 5.18185 -1.89228 21.1612 -2.62671 -0.0 0.0 -0.0 2.1294 -2.66235 -4.31553 -34.6184 21.1275 -60.9053 0.812891 21.9336 -0.157524 5.3914 -0.158515 0.670172 2.92528 -24.4056 -27.5371 0.0 0.0 0.0 -13.0465 -6.15346 9.92557 -14.7573 0.321238 2.23565 20.989 25.331 -3.00385 20.0705 -0.0 -0.0 -0.0 0.0 -0.0 30.5874 12.9997 6.389 -10.6139 -0.289426 -1.60085 -14.8159 10.2458 -2.34818 -13.478 0.0 0.0 0.0 0.0 0.0 
2994.9 719.561 -675.584 -88.1698 -87.5876 -92.1013 3.73901 -0.150098 -1.09882 3.73968 -0.0798779 -1.10614 3.74088 0.0824142 -1.10595 3.73919 -0.0932738 -1.10509 -8.83474 14.7907 6.07437 -8.85838 23.561 9.40228 -0.0 0.0 -0.0 4.67359 6.13991 9.20882 -15.9303 -30.1411 58.3367 2.78596 -54.0632 1.42166 -85.0583 -8.45921 5.18315 -2.00355 20.9922 -3.36279 -0.0 0.0 -0.0 2.46742 -3.03457 -4.9777 -32.8567 22.2749 -61.0428 0.81268 21.9285 -0.157445 5.44938 -0.159876 0.677454 2.97731 -26.7893 -28.3414 0.0 0.0 0.0 -11.8696 -5.95212 8.9505 -18.2335 0.31248 2.76884 17.7065 27.0522 -2.59438 20.7278 -0.0 -0.0 -0.0 0.0 -0.0 30.0301 12.5643 5.54611 -12.3599 -0.308428 -1.86807 -10.4854 13.1899 -1.68578 -13.163 0.0 0.0 0.0 0.0 0.0 
3012.19 722.572 -666.233 -83.3345 -87.2278 -87.2976 3.67358 -0.116502 -1.01753 3.67416 -0.0515216 -1.02288 3.67479 0.0994946 -1.01934 3.67335 -0.0627304 -1.02226 -9.27091 14.9242 6.00163 -9.32708 23.9552 9.45264 -0.0 0.0 -0.0 4.06823 5.70363 8.08719 -16.6162 -30.2497 59.1094 2.67512 -52.9519 1.33254 -85.1114 -8.46584 5.18183 -2.07483 20.7905 -3.88192 -0.0 0.0 -0.0 2.7145 -3.00372 -5.43871 -31.1918 23.2093 -60.7018 0.80679 21.7845 -0.155252 5.44432 -0.159757 0.676818 3.01477 -28.5829 -28.8898 0.0 0.0 0.0 -10.9291 -5.61682 8.74857 -20.6908 0.286787 3.14498 15.2321 28.1745 -2.26855 21.1679 -0.0 -0.0 -0.0 0.0 -0.0 29.4746 12.3071 4.90844 -13.6346 -0.317154 -2.06345 -7.49403 15.4314 -1.21927 -12.8699 0.0 0.0 0.0 0.0 0.0 
3027.43 733.508 -666.094 -109.428 -87.6555 -113.915 3.49225 0.0108791 -0.708003 3.49253 0.0559079 -0.705876 3.49171 0.161335 -0.689462 3.49105 0.0504253 -0.706288 -9.53559 15.1725 5.74606 -9.62664 24.654 9.32611 -0.0 0.0 -0.0 3.4742 5.44723 6.98764 -18.9635 -30.237 59.5894 2.51616 -51.2521 1.2071 -85.1171 -8.46655 5.18169 -2.11783 20.6008 -4.2297 -0.0 0.0 -0.0 2.79365 -2.85095 -5.57715 -30.2927 24.5672 -60.3933 0.815114 21.9879 -0.158355 5.06163 -0.150637 0.628783 3.07417 -30.1344 -29.5016 0.0 0.0 0.0 -9.09253 -5.2888 8.5085 -22.6271 0.255191 3.44041 11.4945 29.1417 -1.74479 20.8255 -0.0 -0.0 -0.0 0.0 -0.0 29.0802 12.1276 4.4417 -16.3709 -0.321195 -2.48322 -5.99793 16.7121 -0.983198 -12.6472 0.0 0.0 0.0 0.0 0.0 
3045.24 732.738 -664.394 -151.442 -86.4318 -156.027 3.43483 0.207295 -0.506029 3.43494 0.239075 -0.491814 3.43283 0.310724 -0.449988 3.43262 0.235758 -0.493412 -9.00368 15.4183 5.39461 -9.07915 25.2505 8.93624 -0.0 0.0 -0.0 3.06855 5.58272 6.25225 -20.5185 -30.26 60.0916 2.4215 -50.176 1.13382 -85.1296 -8.46812 5.18138 -2.20552 20.8633 -4.61726 -0.0 0.0 -0.0 2.8827 -0.90841 -5.61686 -28.5287 26.019 -60.0576 0.819268 22.0892 -0.159914 5.03603 -0.150016 0.625572 3.15309 -30.4301 -30.0421 0.0 0.0 0.0 -6.40957 -4.99418 6.59657 -26.0427 0.175186 3.95838 8.29267 29.2347 -1.2718 20.1021 -0.0 -0.0 -0.0 0.0 -0.0 27.7292 12.0062 4.58044 -18.0961 -0.31344 -2.74779 -4.79215 17.8688 -0.791326 -11.9364 0.0 0.0 0.0 0.0 0.0 
3053.7 737.019 -663.665 -153.433 -86.0113 -157.914 3.30598 0.131296 -0.333063 3.30602 0.152224 -0.324033 3.30514 0.20015 -0.296833 3.30505 0.150759 -0.324718 -8.69551 15.4544 5.198 -8.75745 25.3915 8.68834 -0.0 0.0 -0.0 2.71671 5.58998 5.61026 -22.4065 -30.221 60.1744 2.23958 -47.963 0.996363 -85.133 -8.46855 5.18129 -2.22342 20.6884 -4.81079 -0.0 0.0 -0.0 2.95086 0.656807 -5.64173 -27.2315 27.0687 -59.7307 0.899743 24.0225 -0.191435 5.12671 -0.152211 0.636948 3.20484 -30.2891 -30.3532 0.0 0.0 0.0 -4.59038 -4.78993 6.24085 -28.5 0.0985906 4.3277 6.03354 28.5199 -0.926744 19.7156 -0.0 -0.0 -0.0 0.0 -0.0 27.0318 11.8114 3.99492 -19.2596 -0.303713 -2.92605 -3.08525 18.2405 -0.509178 -11.3321 0.0 0.0 0.0 0.0 0.0 
3067.68 734.162 -656.144 -160.295 -85.8852 -164.709 3.2837 0.0846508 -0.173832 3.28371 0.0955406 -0.168093 3.28343 0.120262 -0.151394 3.28341 0.0948432 -0.168488 -8.5284 15.3702 5.19624 -8.57708 25.1997 8.63013 -0.0 0.0 -0.0 2.78794 5.70176 5.74708 -23.3593 -29.4216 60.0497 2.09027 -45.9924 0.887182 -85.0874 -8.46285 5.18243 -2.16561 20.5336 -4.54598 -0.0 0.0 -0.0 2.86395 1.86198 -5.38704 -26.3008 28.0385 -59.4539 1.02312 26.8763 -0.244468 5.37745 -0.158187 0.668421 3.24052 -30.2077 -30.571 0.0 0.0 0.0 -2.61234 -4.84016 7.15588 -30.7477 0.014704 4.66242 4.35139 28.0043 -0.669094 19.3873 -0.0 -0.0 -0.0 0.0 -0.0 26.4182 11.7237 3.55354 -19.9326 -0.296436 -3.02904 -1.89972 18.4558 -0.313217 -11.1057 0.0 0.0 0.0 0.0 0.0 
3078.17 745.963 -652.668 -166.12 -84.6885 -170.794 3.24271 0.0911628 -0.0227215 3.2427 0.0924238 -0.0168746 3.24268 0.0939213 -0.00238885 3.24269 0.0923653 -0.017192 -8.41426 15.144 4.92244 -8.46021 24.941 8.28649 -0.0 0.0 -0.0 2.91726 6.5344 6.03076 -25.2613 -28.6707 60.03 1.89371 -43.1659 0.749178 -84.8655 -8.43511 5.18787 -2.07318 20.062 -4.23105 -0.0 0.0 -0.0 3.01324 2.69539 -5.62108 -24.9151 29.098 -59.7289 1.12488 29.1271 -0.292254 5.55364 -0.162304 0.69055 3.25418 -30.1108 -30.6462 0.0 0.0 0.0 -0.289135 -4.78048 7.72215 -32.4263 -0.0564896 4.91017 2.63678 27.6476 -0.406255 18.9645 -0.0 -0.0 -0.0 0.0 -0.0 25.2149 11.6201 3.31347 -20.4129 -0.290502 -3.1025 -0.644105 18.6251 -0.106012 -10.7483 0.0 0.0 0.0 0.0 0.0 
3086.82 744.459 -647.123 -160.998 -83.0631 -165.883 3.10186 0.184259 0.134876 3.10186 0.175303 0.146328 3.10231 0.150163 0.172029 3.10231 0.175447 0.146154 -8.63069 14.8788 4.82275 -8.68932 24.5532 8.17208 -0.0 0.0 -0.0 2.96552 7.34648 6.16262 -26.5902 -27.7292 59.8332 1.75723 -41.0352 0.657661 -84.6933 -8.41356 5.19202 -2.00966 19.7316 -4.01496 -0.0 0.0 -0.0 3.18102 3.27 -5.91279 -23.7556 29.8545 -59.8447 1.2355 31.4666 -0.348071 5.4767 -0.160514 0.680885 3.19926 -29.947 -30.2723 0.0 0.0 0.0 1.01958 -4.70727 6.19098 -33.8664 -0.123337 5.12101 1.4758 27.3727 -0.227614 18.6661 -0.0 -0.0 -0.0 0.0 -0.0 24.3793 11.3471 3.24458 -17.4378 -0.31734 -2.64686 0.112126 18.6072 0.0184139 -10.495 0.0 0.0 0.0 0.0 0.0 
